<svg width="40" height="40" viewBox="0 0 40 40" fill="none" xmlns="http://www.w3.org/2000/svg">
<path fill-rule="evenodd" clip-rule="evenodd" d="M7.49584 7.11839C8.73355 8.12398 9.19787 8.04726 11.5221 7.89218L33.4337 6.57649C33.8984 6.57649 33.512 6.11287 33.357 6.03584L29.718 3.40508C29.0207 2.86373 28.0917 2.24377 26.3112 2.39886L5.09423 3.94636C4.32044 4.02308 4.16591 4.40997 4.47404 4.72007L7.49584 7.11839ZM8.81137 12.2249V35.2797C8.81137 36.5187 9.43054 36.9823 10.8241 36.9056L34.9049 35.5122C36.2992 35.4356 36.4545 34.5833 36.4545 33.5768V10.6767C36.4545 9.67179 36.068 9.12989 35.2145 9.20724L10.0498 10.6767C9.12107 10.7547 8.81129 11.2193 8.81129 12.2249H8.81137ZM32.5839 13.4616C32.7383 14.1586 32.5839 14.8549 31.8856 14.9333L30.7254 15.1645V32.185C29.718 32.7264 28.789 33.036 28.0149 33.036C26.7756 33.036 26.4651 32.6489 25.5368 31.489L17.9474 19.5745V31.1021L20.349 31.644C20.349 31.644 20.349 33.036 18.4114 33.036L13.0699 33.3458C12.9147 33.036 13.0699 32.263 13.6117 32.1081L15.0056 31.7218V16.4801L13.0703 16.325C12.915 15.628 13.3016 14.6231 14.3864 14.5451L20.1166 14.1588L28.0149 26.2284V15.5513L26.0011 15.3202C25.8466 14.4681 26.4651 13.8494 27.2396 13.7727L32.5839 13.4616ZM3.31281 1.85758L25.3819 0.232347C28.092 -8.65976e-05 28.7893 0.155626 30.4927 1.39295L37.5374 6.34436C38.6998 7.19581 39.0873 7.42762 39.0873 8.35579V35.5122C39.0873 37.2142 38.4672 38.2207 36.2996 38.3747L10.6708 39.9223C9.04357 39.9999 8.26916 39.768 7.417 38.6842L2.22917 31.9533C1.29967 30.7142 0.913086 29.7873 0.913086 28.7029V4.56443C0.913086 3.17265 1.53327 2.01165 3.31281 1.85758V1.85758Z" fill="white"/>
</svg>
