<svg width="40" height="40" viewBox="0 0 40 40" fill="none" xmlns="http://www.w3.org/2000/svg">
<path d="M34.0826 34.0828H28.1557V24.8009C28.1557 22.5875 28.1161 19.7383 25.0731 19.7383C21.9861 19.7383 21.5138 22.1497 21.5138 24.6397V34.0821H15.5871V14.9948H21.2767V17.6032H21.3565C22.515 15.6224 24.677 14.435 26.9704 14.5201C32.9774 14.5201 34.0851 18.4713 34.0851 23.6118L34.0826 34.0828ZM8.89958 12.3856C7.01275 12.3856 5.4594 10.8332 5.4594 8.94631C5.4594 7.05944 7.01203 5.5068 8.89886 5.5068C10.7855 5.5068 12.338 7.05909 12.3383 8.94559C12.3383 10.8321 10.7861 12.3855 8.89958 12.3856ZM11.863 34.0828H5.92995V14.9948H11.863V34.0828ZM37.0372 0.00275959H2.95156C1.35152 -0.0153111 0.0195017 1.28577 0 2.88583V37.1135C0.0187861 38.7144 1.35063 40.0169 2.95156 39.9998H37.0372C38.642 40.02 39.9785 38.7176 40 37.1135V2.88351C39.9785 1.28005 38.6402 -0.0208589 37.0372 0.000253389V0.00275959Z" fill="white"/>
</svg>
