<svg width="49" height="40" viewBox="0 0 49 40" fill="none" xmlns="http://www.w3.org/2000/svg">
<g clip-path="url(#clip0_411_36)">
<path d="M43.5198 10.0567C43.5492 10.4822 43.5492 10.9077 43.5492 11.3371C43.5492 24.4214 33.5884 39.5116 15.3747 39.5116V39.5038C9.99433 39.5116 4.7257 37.9704 0.196289 35.0646C0.978642 35.1587 1.76492 35.2057 2.55315 35.2077C7.01198 35.2116 11.3433 33.7155 14.8512 30.9606C10.6139 30.8802 6.89825 28.1175 5.60021 24.0842C7.08452 24.3704 8.61394 24.3116 10.0708 23.9136C5.45119 22.9802 2.12766 18.9214 2.12766 14.2077C2.12766 14.1646 2.12766 14.1234 2.12766 14.0822C3.50413 14.8489 5.04531 15.2744 6.62178 15.3214C2.2708 12.4136 0.929622 6.62534 3.55707 2.09985C8.58452 8.28613 16.0022 12.0469 23.9649 12.445C23.1669 9.00574 24.2571 5.40181 26.8296 2.98417C30.8179 -0.764852 37.0904 -0.572695 40.8394 3.41358C43.0571 2.97632 45.1826 2.1626 47.1277 1.00966C46.3884 3.30181 44.8414 5.24887 42.7747 6.48613C44.7375 6.25476 46.6551 5.72927 48.461 4.9273C47.1316 6.91946 45.4571 8.65476 43.5198 10.0567Z" fill="white"/>
</g>
<defs>
<clipPath id="clip0_411_36">
<rect width="48.6275" height="40" fill="white"/>
</clipPath>
</defs>
</svg>
